<svg xmlns="http://www.w3.org/2000/svg" width="512" height="512">
	<linearGradient id="a" x1="175.5" x2="175.5" y1="109.5" y2="361.35" gradientTransform="matrix(1.41047 0 0 1.41047 8.438 -1.41)" gradientUnits="userSpaceOnUse">
		<stop offset="0" stop-color="#f05a28" />
		<stop offset="1" stop-color="#fbca0a" />
	</linearGradient>
	<path fill="url(#a)" d="M490.818 225.957c-.846-8.604-2.256-18.477-5.077-29.479-2.821-10.86-7.053-22.85-13.259-35.261a196.354 196.354 0 0 0-24.683-37.801c-4.09-4.937-8.604-9.732-13.4-14.387 7.194-28.632-8.744-53.457-8.744-53.457-27.504-1.692-44.994 8.604-51.482 13.259-1.129-.423-2.116-.987-3.244-1.41-4.655-1.834-9.45-3.668-14.528-5.22a239.942 239.942 0 0 0-15.233-4.23c-5.219-1.27-10.438-2.258-15.798-3.104-.987-.14-1.833-.282-2.82-.423C310.56 16.08 276.145 0 276.145 0c-38.506 24.401-45.7 58.534-45.7 58.534s-.14.706-.422 1.975c-2.116.564-4.232 1.27-6.347 1.834-2.962.846-5.924 1.974-8.745 3.103a226.571 226.571 0 0 0-8.745 3.526 215.706 215.706 0 0 0-17.208 8.463c-5.5 3.103-10.86 6.488-16.08 10.014l-1.41-.564c-53.315-20.31-100.566 4.09-100.566 4.09-4.372 56.701 21.298 92.386 26.376 98.874-1.27 3.526-2.398 7.052-3.526 10.579-3.95 12.835-6.912 25.952-8.745 39.634-.282 1.974-.565 3.949-.706 5.924-49.366 24.4-63.894 74.19-63.894 74.19 41.045 47.251 89 50.213 89 50.213l.142-.141c6.065 10.86 13.117 21.157 21.016 30.89 3.385 4.09 6.77 7.898 10.437 11.706-14.95 42.878 2.116 78.422 2.116 78.422 45.7 1.693 75.742-20.029 82.09-24.965 4.513 1.551 9.167 2.962 13.822 4.09a201.899 201.899 0 0 0 42.878 6.347c3.526.141 7.193.282 10.72.141h5.077l2.257-.14v.14c21.58 30.749 59.38 35.121 59.38 35.121 26.94-28.35 28.492-56.56 28.492-62.625v-2.539c5.642-3.949 11.002-8.18 16.08-12.835 10.72-9.732 20.17-20.875 28.068-32.864l2.116-3.385c30.466 1.693 52.046-18.9 52.046-18.9-5.078-31.736-23.132-47.25-26.94-50.213 0 0-.141-.14-.423-.282-.282-.141-.282-.282-.282-.282-.141-.141-.423-.282-.706-.423.141-1.975.283-3.808.424-5.783.282-3.385.282-6.911.282-10.297v-5.36l-.141-2.115-.141-2.821c0-.987-.141-1.834-.283-2.68-.14-.846-.14-1.833-.282-2.68l-.282-2.68-.423-2.68c-.564-3.526-1.128-6.91-1.974-10.437-3.245-13.682-8.604-26.658-15.516-38.365-7.052-11.707-15.797-22.003-25.811-30.748-9.873-8.745-21.016-15.797-32.582-21.016-11.707-5.219-23.837-8.604-35.967-10.155-6.065-.847-12.13-1.129-18.195-.988h-4.514l-2.256.141c-.847 0-1.693.141-2.398.141a95.621 95.621 0 0 0-9.168 1.27c-12.13 2.257-23.555 6.63-33.57 12.694-10.014 6.065-18.758 13.54-25.81 22.003a100.672 100.672 0 0 0-16.362 27.646 97.279 97.279 0 0 0-6.488 29.62c-.141 2.397-.141 4.936-.141 7.334v1.833l.14 1.975c.142 1.129.142 2.398.283 3.526.423 4.937 1.41 9.733 2.68 14.246 2.68 9.168 6.91 17.49 12.13 24.542 5.218 7.053 11.565 12.835 18.195 17.49 6.629 4.513 13.822 7.758 20.875 9.873 7.052 2.116 14.104 2.962 20.733 2.962h3.668c.423 0 .846 0 1.27-.14.704 0 1.41-.142 2.115-.142.14 0 .423 0 .564-.14l.705-.142c.423 0 .847-.141 1.27-.141.846-.141 1.551-.282 2.397-.423.847-.141 1.552-.282 2.257-.564 1.552-.282 2.962-.847 4.373-1.27 2.82-.987 5.642-2.115 8.04-3.385 2.538-1.27 4.795-2.82 7.052-4.231.564-.423 1.27-.847 1.833-1.41 2.257-1.834 2.68-5.22.847-7.476-1.552-1.975-4.373-2.54-6.63-1.27l-1.692.847c-1.975.987-3.95 1.833-6.065 2.538a50.681 50.681 0 0 1-6.63 1.693c-1.128.141-2.256.282-3.526.423-.564 0-1.128.141-1.833.141h-3.385c-.706 0-1.41 0-2.116-.14h-.846c-.282 0-.706 0-.988-.142-.705-.14-1.27-.14-1.974-.282-5.219-.705-10.438-2.257-15.374-4.513-5.078-2.257-9.874-5.36-14.246-9.31-4.373-3.949-8.18-8.603-11.143-13.963-2.962-5.36-5.078-11.284-6.065-17.49-.423-3.103-.705-6.347-.564-9.45 0-.846.141-1.693.141-2.539v-1.128c0-.423.141-.847.141-1.27.141-1.692.423-3.385.705-5.077 2.398-13.54 9.168-26.8 19.606-36.814 2.68-2.539 5.5-4.795 8.463-6.911 2.962-2.116 6.206-3.95 9.59-5.5 3.386-1.552 6.771-2.822 10.438-3.81 3.526-.986 7.194-1.55 11.002-1.974 1.834-.14 3.667-.282 5.642-.282h4.372l1.552.141c4.09.282 8.04.847 11.989 1.834 7.898 1.692 15.656 4.654 22.85 8.604 14.386 8.04 26.657 20.451 34.133 35.402 3.808 7.476 6.488 15.516 7.757 23.837.282 2.116.564 4.232.705 6.347l.142 1.552.14 1.552v6.065c0 .987-.14 2.68-.14 3.667-.142 2.256-.424 4.654-.706 6.911-.282 2.257-.705 4.514-1.128 6.77-.423 2.257-.987 4.514-1.552 6.63a118.025 118.025 0 0 1-4.231 13.117c-3.385 8.463-7.899 16.643-13.258 24.119-10.861 14.95-25.671 27.08-42.597 34.838-8.462 3.809-17.348 6.63-26.516 8.04-4.514.846-9.168 1.27-13.823 1.41h-7.052c-2.54 0-4.937-.14-7.476-.423-9.873-.705-19.605-2.538-29.196-5.218-9.45-2.68-18.619-6.488-27.364-11.002-17.348-9.31-33.005-22.003-45.135-37.377a145.42 145.42 0 0 1-15.797-24.543 145.755 145.755 0 0 1-10.437-26.94c-2.54-9.309-4.09-18.759-4.796-28.35l-.14-1.833v-12.554c.14-4.654.563-9.59 1.127-14.386.565-4.796 1.41-9.733 2.398-14.528.988-4.796 2.116-9.591 3.526-14.387 2.68-9.45 6.065-18.618 10.015-27.222 8.04-17.208 18.477-32.582 31.03-44.853 3.103-3.103 6.347-5.924 9.732-8.745a143.916 143.916 0 0 1 10.579-7.616c3.526-2.398 7.334-4.514 11.143-6.489 1.833-.987 3.808-1.974 5.782-2.82l2.962-1.27 2.962-1.27c3.95-1.692 8.04-3.102 12.271-4.372.988-.282 2.116-.564 3.104-.987.987-.282 2.115-.564 3.103-.846 2.115-.565 4.23-1.129 6.347-1.552.987-.282 2.115-.423 3.244-.705 1.128-.282 2.115-.423 3.244-.705 1.128-.141 2.115-.424 3.244-.565l1.551-.282 1.693-.282c1.128-.14 2.116-.282 3.244-.423 1.27-.14 2.398-.282 3.667-.423.988-.141 2.68-.282 3.667-.423.706-.141 1.552-.141 2.257-.282l1.552-.141.705-.141h.846c1.27-.141 2.398-.141 3.667-.282l1.834-.142h1.41c.988 0 2.116-.14 3.104-.14 4.09-.142 8.321-.142 12.412 0 8.18.282 16.22 1.269 23.978 2.68 15.656 2.961 30.325 7.898 43.724 14.527 13.4 6.488 25.248 14.528 35.685 23.273.705.564 1.27 1.128 1.975 1.692.564.565 1.27 1.129 1.833 1.693 1.27 1.128 2.398 2.257 3.667 3.385 1.27 1.129 2.398 2.257 3.527 3.385 1.128 1.129 2.256 2.257 3.385 3.526 4.372 4.655 8.463 9.31 12.13 14.105a182.01 182.01 0 0 1 17.913 28.068l.846 1.693.846 1.693c.565 1.128 1.129 2.256 1.552 3.385.564 1.128.987 2.115 1.551 3.244.423 1.128.988 2.115 1.41 3.244 1.693 4.231 3.386 8.322 4.655 12.13 2.116 6.206 3.668 11.707 4.937 16.502a3.76 3.76 0 0 0 4.231 2.962c2.116-.14 3.668-1.833 3.668-3.949.14-5.078 0-11.143-.706-18.054z" />
</svg>
