<svg xmlns="http://www.w3.org/2000/svg" width="512" height="512">
	<path fill="#42494b" stroke="#42494b" stroke-linejoin="round" stroke-width="115.2" d="M57.6 57.6h396.8v396.8H57.6Z" />
	<path fill="#2cb0af" d="M192.683 50.054v58.002c0 31.526 25.594 57.123 57.12 57.123h69.516v-57.463c0-31.826-25.839-57.663-57.665-57.663h-68.971zm217.558 0c-31.826 0-57.665 25.836-57.665 57.662v57.463h69.515c31.527 0 57.12-25.597 57.12-57.123V50.053h-68.97z" />
	<path fill="#f9ae41" d="M32.787 198.438v58.002c0 31.527 25.594 57.123 57.12 57.123h69.517v-57.46c0-31.826-25.837-57.665-57.664-57.665zm0 148.383v58.004c0 31.526 25.594 57.12 57.12 57.12h69.517v-57.46c0-31.825-25.837-57.664-57.664-57.664z" />
	<path fill="#d2d2d2" d="M192.683 198.438v58.002c0 31.527 25.594 57.123 57.12 57.123h69.515v-57.46c0-31.826-25.838-57.665-57.664-57.665zm217.558 0c-31.826 0-57.665 25.84-57.665 57.665v57.46h69.515c31.527 0 57.12-25.596 57.12-57.123v-58.002ZM192.683 346.821v58.004c0 31.526 25.594 57.12 57.12 57.12h69.515v-57.46c0-31.825-25.838-57.664-57.664-57.664zm217.558 0c-31.826 0-57.665 25.84-57.665 57.664v57.46h69.515c31.527 0 57.12-25.594 57.12-57.12v-58.004z" />
</svg>
