<svg xmlns="http://www.w3.org/2000/svg" width="512" height="512">
	<path fill="#c72c48" d="M281.754.128c-13.26-1.02-25.6 4.145-34.584 12.416a45.867 45.867 0 0 0-2 64.75l72.708 75.75a64.896 64.896 0 0 1-14.166 100l-9.877 5.083V155.42a328.956 328.956 0 0 0-171.038 223.705v.376l139.706-71v162.582L293.96 512V291.876l19.125-9.875a94.788 94.788 0 0 0 26.042-149.956l-71.915-75.209a15.977 15.977 0 0 1 .79-22.5 16.047 16.047 0 0 1 22.542.791l9.959 10.375-.128.126 86.835 90.54a1.207 1.207 0 0 0 1.75 0 1.28 1.28 0 0 0 0-1.5l-67-109.706-3.166 3.04 3.166-3.083C309.216 8.375 295.013 1.148 281.754.128Zm-19.251 210.458v63.874l-88.583 45.832a298.212 298.212 0 0 1 59.042-83.79 302.473 302.473 0 0 1 29.54-25.916z" />
</svg>
