<svg xmlns="http://www.w3.org/2000/svg" width="512" height="512">
	<path fill="#e6522c" d="M256.002 0C114.62 0-.005 114.61-.005 255.998-.005 397.38 114.62 512 256.002 512c141.383 0 256.003-114.62 256.003-256.002C512.005 114.61 397.38 0 256.002 0Zm0 479.129c-40.226 0-72.84-26.872-72.84-60.01h145.68c0 33.134-32.614 60.01-72.84 60.01zm120.308-79.883H135.68v-43.632h240.633v43.632zm-.863-66.09H136.368c-.795-.917-1.608-1.82-2.376-2.751-24.631-29.908-30.432-45.52-36.065-61.432-.095-.524 29.866 6.121 51.113 10.901 0 0 10.933 2.53 26.917 5.444-15.347-17.99-24.46-40.859-24.46-64.233 0-51.317 39.36-96.16 25.16-132.406 13.82 1.125 28.602 29.166 29.6 73.01 14.692-20.302 20.84-57.379 20.84-80.112 0-23.538 15.51-50.879 31.024-51.814-13.829 22.792 3.583 42.331 19.06 90.802 5.806 18.206 5.065 48.846 9.546 68.277 1.487-40.357 8.426-99.242 34.028-119.571-11.294 25.602 1.672 57.637 10.54 73.038 14.308 24.847 22.982 43.673 22.982 79.277 0 23.872-8.814 46.348-23.682 63.917 16.905-3.171 28.579-6.031 28.579-6.031l54.9-10.712c.004-.005-7.974 32.804-38.627 64.396z" />
</svg>
