<svg xmlns="http://www.w3.org/2000/svg" width="512" height="512">
	<path fill="#24a1c1" d="M255.998 25.543c23.224 0 43.863 16.378 43.863 36.55 0 20.173-19.651 36.55-43.863 36.55-2.774 0-6.38-.443-10.84-1.353a14.57 14.57 0 0 0-10.143 1.62L77.762 188.344a7.323 7.323 0 0 0 .033 12.739l170.469 95.692a14.622 14.622 0 0 0 14.258.033l171.39-95.27a7.312 7.312 0 0 0 .067-12.75l-53.483-30.348a14.614 14.614 0 0 0-14.314-.077l-56.446 31.313a4.993 4.993 0 0 0-2.54 3.817l-.023.532c0 20.184-19.651 36.562-43.863 36.562-24.211 0-43.863-16.378-43.863-36.562 0-20.172 19.652-36.55 43.863-36.55.899 0 1.931.055 3.107.144l1.842.189 2.053.255a14.7 14.7 0 0 0 9.054-1.698l83.487-46.304a21.915 21.915 0 0 1 20.583-.366l.888.466 116.575 66.188c14.614 8.29 14.78 29.16.61 37.782l-.776.455-78.006 43.353a7.323 7.323 0 0 0 .167 12.86l77.228 40.623c15.346 8.067 15.713 29.893.666 38.47L266.195 483.577a21.948 21.948 0 0 1-21.737 0L11.208 350.436c-15.069-8.6-14.647-30.47.732-38.493l78.083-40.733a7.312 7.312 0 0 0 .2-12.86l-79.026-44.363c-14.614-8.21-14.936-28.994-.888-37.726l.777-.466L205.178 65.422a14.647 14.647 0 0 0 6.569-7.867l.244-.777c6.824-20.283 22.314-31.235 44.007-31.235zM364.296 294.81l-95.837 55.103-.888.488a21.837 21.837 0 0 1-20.727-.388l-95.537-53.86a14.547 14.547 0 0 0-13.904-.222l-55.07 28.794a7.323 7.323 0 0 0-.233 12.838l168.25 96.27a14.58 14.58 0 0 0 14.458 0l169.703-96.958a7.301 7.301 0 0 0-.21-12.816l-55.958-29.515a14.565 14.565 0 0 0-14.047.266z" />
</svg>
